<svg width="192" height="192" viewBox="0 0 192 192" fill="none" xmlns="http://www.w3.org/2000/svg">
<g filter="url(#filter0_d_25_790)">
<circle cx="92" cy="92" r="66" fill="url(#paint0_linear_25_790)"/>
</g>
<path d="M120.915 61.7475C120.577 61.4575 120.181 61.2437 119.753 61.1207C119.325 60.9977 118.875 60.9683 118.435 61.0345L78.135 67.2341C77.4011 67.3455 76.7315 67.7164 76.248 68.2796C75.7644 68.8428 75.499 69.5607 75.5 70.303V102.386C74.0516 101.679 72.462 101.308 70.85 101.301C68.7041 101.301 66.6063 101.938 64.8221 103.13C63.0378 104.322 61.6471 106.016 60.8259 107.999C60.0047 109.981 59.7898 112.163 60.2085 114.267C60.6271 116.372 61.6605 118.305 63.1779 119.822C64.6953 121.34 66.6286 122.373 68.7333 122.792C70.838 123.21 73.0195 122.995 75.0021 122.174C76.9847 121.353 78.6792 119.962 79.8714 118.178C81.0637 116.394 81.7 114.296 81.7 112.151V88.4679L115.8 83.2292V96.1865C114.352 95.4791 112.762 95.1082 111.15 95.1016C109.004 95.1016 106.906 95.7379 105.122 96.93C103.338 98.1222 101.947 99.8166 101.126 101.799C100.305 103.782 100.09 105.963 100.508 108.068C100.927 110.172 101.96 112.105 103.478 113.623C104.995 115.14 106.929 116.173 109.033 116.592C111.138 117.011 113.32 116.796 115.302 115.974C117.285 115.153 118.979 113.763 120.171 111.979C121.364 110.194 122 108.097 122 105.951V64.1033C122 63.6556 121.903 63.2131 121.716 62.8065C121.528 62.3998 121.255 62.0385 120.915 61.7475ZM70.85 116.8C69.9303 116.8 69.0313 116.528 68.2666 116.017C67.5019 115.506 66.9059 114.78 66.554 113.93C66.202 113.08 66.1099 112.145 66.2894 111.243C66.4688 110.342 66.9116 109.513 67.562 108.863C68.2123 108.212 69.0408 107.77 69.9428 107.59C70.8448 107.411 71.7798 107.503 72.6295 107.855C73.4792 108.207 74.2054 108.803 74.7163 109.567C75.2273 110.332 75.5 111.231 75.5 112.151C75.5 113.384 75.0101 114.566 74.1381 115.438C73.266 116.31 72.0833 116.8 70.85 116.8ZM111.15 110.601C110.23 110.601 109.331 110.328 108.567 109.817C107.802 109.306 107.206 108.58 106.854 107.73C106.502 106.881 106.41 105.946 106.589 105.044C106.769 104.142 107.212 103.313 107.862 102.663C108.512 102.013 109.341 101.57 110.243 101.391C111.145 101.211 112.08 101.303 112.929 101.655C113.779 102.007 114.505 102.603 115.016 103.368C115.527 104.132 115.8 105.031 115.8 105.951C115.8 107.184 115.31 108.367 114.438 109.239C113.566 110.111 112.383 110.601 111.15 110.601ZM115.8 76.9366L81.7 82.1753V72.8758L115.8 67.7301V76.9366Z" fill="white"/>
<defs>
<filter id="filter0_d_25_790" x="0" y="0" width="192" height="192" filterUnits="userSpaceOnUse" color-interpolation-filters="sRGB">
<feFlood flood-opacity="0" result="BackgroundImageFix"/>
<feColorMatrix in="SourceAlpha" type="matrix" values="0 0 0 0 0 0 0 0 0 0 0 0 0 0 0 0 0 0 127 0" result="hardAlpha"/>
<feOffset dx="4" dy="4"/>
<feGaussianBlur stdDeviation="15"/>
<feComposite in2="hardAlpha" operator="out"/>
<feColorMatrix type="matrix" values="0 0 0 0 0 0 0 0 0 0 0 0 0 0 0 0 0 0 0.13 0"/>
<feBlend mode="normal" in2="BackgroundImageFix" result="effect1_dropShadow_25_790"/>
<feBlend mode="normal" in="SourceGraphic" in2="effect1_dropShadow_25_790" result="shape"/>
</filter>
<linearGradient id="paint0_linear_25_790" x1="92" y1="26" x2="92" y2="158" gradientUnits="userSpaceOnUse">
<stop stop-color="#FF5D5D"/>
<stop offset="1" stop-color="#9A34FF"/>
</linearGradient>
</defs>
</svg>
