<svg width="290" height="89" viewBox="0 0 290 89" fill="none" xmlns="http://www.w3.org/2000/svg">
<path d="M69.7776 42.9329L58.7286 36.5664L49.6406 45.3443L57.9466 53.3659L69.7776 46.5414C70.094 46.3588 70.3567 46.0962 70.5393 45.78C70.722 45.4638 70.8182 45.1051 70.8182 44.74C70.8182 44.3749 70.722 44.0163 70.5393 43.7001C70.3567 43.3839 70.094 43.1213 69.7776 42.9386V42.9329Z" fill="#FFD109"/>
<path d="M56.853 35.4786L44.6926 28.4675L18.0469 14.8242L48.1425 43.8909L56.853 35.4786Z" fill="#06EF79"/>
<path d="M18.4922 75.4256L44.743 60.9779L56.0732 54.4421L48.1467 46.7861L18.4922 75.4256Z" fill="#F93646"/>
<path d="M16.2711 16.001L16.2422 74.7041L46.648 45.339L16.2711 16.001Z" fill="#05D5FB"/>
<path d="M278.791 1.92456C281.252 1.92762 283.611 2.90573 285.352 4.64437C287.092 6.38301 288.071 8.74024 288.074 11.199V76.9133C288.071 79.3725 287.092 81.7302 285.352 83.4692C283.612 85.2083 281.253 86.1867 278.791 86.1897H11.2088C8.74752 86.1867 6.38798 85.2083 4.64777 83.4692C2.90756 81.7302 1.92879 79.3725 1.92624 76.9133V11.199C1.9293 8.74024 2.90827 6.38301 4.64843 4.64437C6.38859 2.90573 8.74785 1.92762 11.2088 1.92456H278.791ZM278.791 0H11.2088C8.23604 0 5.38505 1.1799 3.28299 3.28012C1.18093 5.38035 1.65536e-07 8.22887 1.65536e-07 11.199V76.9133C-0.00025282 78.3842 0.289472 79.8406 0.852655 81.1996C1.41584 82.5585 2.24147 83.7933 3.28233 84.8335C4.32319 85.8736 5.55892 86.6987 6.91896 87.2616C8.279 87.8245 9.73668 88.1143 11.2088 88.1143H278.791C280.263 88.1143 281.721 87.8245 283.081 87.2616C284.441 86.6987 285.677 85.8736 286.718 84.8335C287.759 83.7933 288.584 82.5585 289.147 81.1996C289.711 79.8406 290 78.3842 290 76.9133V11.199C290 8.22887 288.819 5.38035 286.717 3.28012C284.615 1.1799 281.764 0 278.791 0Z" fill="white"/>
<path d="M95.0411 53.2264H99.0862V62.3931C97.8495 63.3628 96.4451 64.0973 94.9429 64.5602C93.3702 65.0635 91.7286 65.3187 90.0772 65.3165C87.8665 65.3491 85.6833 64.8234 83.7302 63.7884C81.8941 62.8139 80.3615 61.3538 79.2998 59.5679C78.2432 57.7162 77.6875 55.6215 77.6875 53.4901C77.6875 51.3586 78.2432 49.2639 79.2998 47.4123C80.367 45.6214 81.9089 44.1601 83.7552 43.1898C85.7252 42.1533 87.9242 41.6279 90.1503 41.6617C91.9495 41.6408 93.7358 41.9676 95.4109 42.624C96.9409 43.2244 98.3052 44.1811 99.3905 45.4146L96.6938 48.0436C95.8715 47.1956 94.8842 46.525 93.7926 46.0728C92.701 45.6207 91.5283 45.3967 90.3468 45.4146C88.8431 45.3866 87.3566 45.7374 86.0243 46.4346C84.7879 47.0899 83.7617 48.0805 83.0637 49.2926C82.3373 50.5735 81.9687 52.0258 81.9965 53.4978C81.9747 54.9483 82.3433 56.378 83.0637 57.6375C83.7669 58.8529 84.7912 59.8516 86.0243 60.5244C87.3395 61.2388 88.8173 61.6009 90.3141 61.5752C92.1119 61.5752 93.6901 61.1806 95.0488 60.3916L95.0411 53.2264Z" fill="white"/>
<path d="M107.405 64.0663C106.014 63.3329 104.857 62.2231 104.067 60.8638C103.28 59.4437 102.867 57.847 102.867 56.2237C102.867 54.6003 103.28 53.0037 104.067 51.5835C104.861 50.2308 106.017 49.1268 107.405 48.3965C108.898 47.6402 110.548 47.2461 112.221 47.2461C113.894 47.2461 115.544 47.6402 117.037 48.3965C118.425 49.1256 119.581 50.2274 120.377 51.5778C121.164 52.9979 121.577 54.5946 121.577 56.2179C121.577 57.8412 121.164 59.4379 120.377 60.858C119.586 62.2169 118.43 63.3266 117.039 64.0605C115.546 64.8167 113.896 65.2109 112.223 65.2109C110.55 65.2109 108.9 64.8167 107.407 64.0605L107.405 64.0663ZM115.954 60.1902C116.94 59.183 117.433 57.8583 117.433 56.216C117.433 54.5737 116.94 53.2483 115.954 52.2398C114.968 51.2326 113.718 50.729 112.206 50.729C110.693 50.729 109.448 51.2326 108.473 52.2398C107.497 53.2483 107.009 54.5737 107.009 56.216C107.009 57.8583 107.496 59.183 108.471 60.1902C109.448 61.1987 110.692 61.7023 112.204 61.701C113.715 61.6997 114.965 61.1961 115.954 60.1902Z" fill="white"/>
<path d="M128.616 64.0663C127.225 63.3329 126.068 62.2231 125.278 60.8638C124.491 59.4437 124.078 57.847 124.078 56.2237C124.078 54.6003 124.491 53.0037 125.278 51.5835C126.071 50.2308 127.228 49.1268 128.616 48.3965C130.109 47.6402 131.759 47.2461 133.432 47.2461C135.105 47.2461 136.755 47.6402 138.247 48.3965C139.636 49.1256 140.792 50.2274 141.588 51.5778C142.375 52.9979 142.788 54.5946 142.788 56.2179C142.788 57.8412 142.375 59.4379 141.588 60.858C140.797 62.2169 139.641 63.3266 138.249 64.0605C136.757 64.8167 135.107 65.2109 133.434 65.2109C131.76 65.2109 130.111 64.8167 128.618 64.0605L128.616 64.0663ZM137.165 60.1902C138.151 59.183 138.644 57.8583 138.644 56.216C138.644 54.5737 138.151 53.2483 137.165 52.2398C136.179 51.2326 134.929 50.729 133.417 50.729C131.904 50.729 130.659 51.2326 129.683 52.2398C128.709 53.2483 128.221 54.5737 128.221 56.216C128.221 57.8583 128.709 59.183 129.683 60.1902C130.661 61.1987 131.905 61.7023 133.417 61.701C134.928 61.6997 136.177 61.1961 137.165 60.1902Z" fill="white"/>
<path d="M164.158 47.4444V62.3271C164.158 68.5036 161.001 71.5913 154.688 71.59C153.066 71.599 151.451 71.3833 149.888 70.9491C148.523 70.5976 147.247 69.9657 146.14 69.0938L147.981 66.0145C148.846 66.7023 149.833 67.2208 150.89 67.5426C152.041 67.9231 153.245 68.118 154.457 68.12C156.383 68.12 157.796 67.6818 158.695 66.8055C159.594 65.9292 160.043 64.5936 160.043 62.7986V61.8786C159.334 62.6462 158.457 63.2391 157.48 63.6108C156.42 64.0147 155.293 64.2158 154.159 64.2035C152.587 64.2261 151.033 63.8591 149.638 63.1354C148.316 62.4481 147.212 61.4073 146.448 60.1292C145.683 58.779 145.281 57.2541 145.281 55.7027C145.281 54.1513 145.683 52.6264 146.448 51.2762C147.215 50.0082 148.321 48.9796 149.642 48.3066C151.04 47.5932 152.592 47.2318 154.163 47.2539C155.348 47.2392 156.525 47.4515 157.63 47.8794C158.65 48.2806 159.55 48.9366 160.244 49.7847V47.4444H164.158ZM158.618 59.3209C159.614 58.3894 160.113 57.1789 160.113 55.6892C160.113 54.2227 159.614 53.0295 158.618 52.1096C157.621 51.1896 156.342 50.7296 154.781 50.7296C153.203 50.7296 151.915 51.1896 150.917 52.1096C149.919 53.0295 149.421 54.2227 149.422 55.6892C149.422 57.1789 149.92 58.3894 150.917 59.3209C151.913 60.2524 153.201 60.7175 154.781 60.7162C156.341 60.7162 157.62 60.2511 158.618 59.3209Z" fill="white"/>
<path d="M169.549 40.6084H173.657V64.9869H169.547L169.549 40.6084Z" fill="white"/>
<path d="M195.484 57.5292H181.707C181.908 58.7637 182.587 59.8697 183.597 60.6085C184.624 61.3642 185.891 61.7421 187.396 61.7421C189.322 61.7421 190.911 61.1069 192.163 59.8367L194.367 62.356C193.564 63.3086 192.534 64.0439 191.371 64.4942C190.072 64.9942 188.688 65.2399 187.296 65.2178C185.369 65.2178 183.67 64.8329 182.199 64.0631C180.78 63.3443 179.598 62.2325 178.795 60.8606C177.983 59.4476 177.569 57.8418 177.595 56.2128C177.571 54.5974 177.973 53.0041 178.762 51.5938C179.521 50.2446 180.644 49.1351 182.002 48.3914C183.432 47.6103 185.04 47.2125 186.669 47.2366C188.271 47.2101 189.853 47.6008 191.258 48.3702C192.591 49.1119 193.686 50.2173 194.415 51.5573C195.17 52.925 195.548 54.5076 195.548 56.3052C195.549 56.5964 195.528 57.0044 195.484 57.5292ZM183.335 51.6978C182.416 52.4922 181.824 53.599 181.675 54.804H191.637C191.5 53.614 190.926 52.5171 190.027 51.7247C189.128 50.9356 188.01 50.5411 186.671 50.5411C185.455 50.5052 184.268 50.9168 183.335 51.6978Z" fill="white"/>
<path d="M223.654 42.9756C225.046 43.5589 226.231 44.544 227.058 45.8047C227.848 47.0326 228.243 48.4895 228.243 50.1754C228.243 51.8434 227.848 53.2938 227.058 54.5269C226.235 55.7946 225.049 56.7852 223.654 57.3694C222.175 58.0251 220.438 58.3535 218.444 58.3548H213.243V64.9907H208.969V41.9902H218.438C220.432 41.9902 222.171 42.3187 223.654 42.9756ZM222.487 53.5607C223.453 52.7716 223.935 51.6438 223.934 50.1773C223.932 48.7108 223.45 47.5824 222.487 46.792C221.524 46.0042 220.111 45.6103 218.249 45.6103H213.253V54.7424H218.249C220.113 54.7386 221.525 54.3427 222.487 53.5549V53.5607Z" fill="white"/>
<path d="M232.453 40.6084H236.562V64.9869H232.453V40.6084Z" fill="white"/>
<path d="M254.596 49.1035C255.966 50.3417 256.651 52.2085 256.651 54.704V64.987H252.771V62.8526C252.243 63.6378 251.494 64.2491 250.618 64.6098C249.548 65.0405 248.4 65.2475 247.247 65.2179C246.061 65.2435 244.884 65.0138 243.795 64.5443C242.872 64.1479 242.079 63.4988 241.509 62.6717C240.971 61.8711 240.69 60.9259 240.704 59.9619C240.704 58.3838 241.29 57.1187 242.462 56.1667C243.635 55.2147 245.481 54.738 248.002 54.7367H252.54V54.475C252.54 53.2484 252.173 52.3066 251.439 51.6497C250.704 50.9928 249.612 50.6644 248.164 50.6644C247.176 50.664 246.193 50.8192 245.253 51.1243C244.373 51.3919 243.552 51.8264 242.836 52.4042L241.226 49.4153C242.222 48.6774 243.348 48.1318 244.544 47.8064C245.881 47.4271 247.265 47.2386 248.655 47.2463C251.247 47.2463 253.227 47.8654 254.596 49.1035ZM250.847 61.5208C251.632 61.0677 252.231 60.3529 252.54 59.502V57.4638H248.303C245.936 57.4638 244.753 58.2414 244.753 59.7964C244.742 60.1423 244.818 60.4853 244.972 60.795C245.127 61.1046 245.356 61.3712 245.639 61.5709C246.232 62.0097 247.052 62.2271 248.106 62.2271C249.067 62.2443 250.014 62.0001 250.847 61.5208Z" fill="white"/>
<path d="M278.016 47.4443L269.797 66.3974C269.026 68.3028 268.095 69.6442 267.002 70.4217C265.909 71.1992 264.585 71.5899 263.03 71.5938C262.146 71.5928 261.269 71.4485 260.432 71.1665C259.654 70.9266 258.937 70.5237 258.328 69.9848L259.971 66.9613C260.378 67.342 260.852 67.643 261.37 67.8486C261.885 68.0637 262.437 68.1755 262.995 68.1777C263.64 68.2028 264.273 68.0057 264.789 67.6195C265.259 67.2462 265.692 66.622 266.087 65.7469L266.384 65.056L258.721 47.4482H262.995L268.52 60.4236L274.077 47.4482L278.016 47.4443Z" fill="white"/>
<path d="M85.0371 29.2244C84.1363 29.2308 83.2469 29.023 82.4424 28.6181C81.6428 28.2168 80.9295 27.6631 80.3428 26.988C79.7473 26.3056 79.2766 25.5239 78.9521 24.6786C78.6209 23.8336 78.4517 22.934 78.4532 22.0265C78.4468 20.1897 79.1158 18.4145 80.3332 17.038C80.9161 16.3817 81.6265 15.8506 82.4213 15.4772C83.2402 15.0964 84.1338 14.9031 85.0371 14.9114C86.4034 14.9114 87.5309 15.1962 88.4196 15.7659C89.2827 16.308 89.9782 17.0788 90.4286 17.9926L89.0552 18.9549C88.6925 18.1865 88.1012 17.5486 87.3621 17.1285C86.6383 16.7292 85.8234 16.5236 84.9966 16.5319C84.3192 16.5233 83.6499 16.6806 83.0473 16.9899C82.4645 17.2933 81.9525 17.7163 81.5448 18.2313C81.1198 18.7623 80.7936 19.3653 80.5817 20.0115C80.363 20.678 80.2525 21.3752 80.2542 22.0766C80.2495 22.8048 80.374 23.5281 80.6221 24.2128C80.8551 24.863 81.2094 25.4632 81.6661 25.9815C82.1043 26.4834 82.6388 26.8925 83.238 27.1843C83.8376 27.4768 84.497 27.6263 85.1642 27.6212C85.9755 27.6221 86.7726 27.4097 87.4757 27.0054C88.2864 26.5228 88.9903 25.8805 89.5445 25.1174V26.9669C88.277 28.4706 86.7745 29.2231 85.0371 29.2244ZM89.3345 23.4411H86.291V22.0939H90.8447V29.1281H89.3345V23.4411Z" fill="white"/>
<path d="M103.149 27.5349V29.1246H93.5625V15.0117H102.97V16.6014H95.352V21.1703H101.976V22.6599H95.352V27.5291L103.149 27.5349Z" fill="white"/>
<path d="M115.782 16.6053H110.909V29.1246H109.123V16.6053H104.25V15.0117H115.786L115.782 16.6053Z" fill="white"/>
<path d="M122.25 29.1246V15.0117H124.039V29.1207L122.25 29.1246Z" fill="white"/>
<path d="M129.208 18.3143V29.1246H127.422V15.0117H128.932L137.565 26.0414V15.0348H139.355V29.1246H137.723L129.208 18.3143Z" fill="white"/>
<path d="M153.493 29.2238C152.561 29.2349 151.638 29.0307 150.797 28.6272C149.995 28.2348 149.281 27.6835 148.699 27.0067C147.516 25.6327 146.863 23.881 146.859 22.0683C146.856 21.1462 147.028 20.2318 147.366 19.3739C147.695 18.5338 148.174 17.7599 148.778 17.0894C149.373 16.426 150.093 15.8858 150.897 15.4997C151.723 15.1084 152.628 14.9109 153.542 14.9223C154.477 14.9111 155.401 15.1222 156.238 15.5382C157.038 15.9429 157.748 16.5037 158.326 17.1876C158.906 17.8737 159.362 18.6551 159.675 19.497C160.156 20.7695 160.278 22.1495 160.027 23.4865C159.776 24.8234 159.163 26.0658 158.253 27.0779C157.659 27.7403 156.939 28.2775 156.134 28.658C155.308 29.0422 154.405 29.2356 153.493 29.2238ZM148.659 22.0683C148.658 22.7751 148.775 23.477 149.007 24.1449C149.227 24.7918 149.561 25.3945 149.991 25.9251C150.411 26.4369 150.933 26.8562 151.523 27.1568C152.14 27.4656 152.822 27.622 153.513 27.6129C154.219 27.6251 154.918 27.4611 155.545 27.1356C156.135 26.8217 156.653 26.3885 157.067 25.8635C157.49 25.3279 157.816 24.7221 158.03 24.0737C158.245 23.4263 158.356 22.7486 158.357 22.0663C158.359 21.3632 158.242 20.6648 158.009 20.0013C157.786 19.3534 157.45 18.7504 157.015 18.221C156.593 17.7071 156.068 17.2874 155.474 16.9893C154.865 16.687 154.194 16.534 153.515 16.5428C152.811 16.5313 152.115 16.6911 151.486 17.0086C150.892 17.3189 150.371 17.7534 149.959 18.2826C149.54 18.817 149.214 19.4182 148.996 20.0609C148.773 20.7068 148.659 21.3851 148.659 22.0683Z" fill="white"/>
<path d="M164.432 18.3143V29.1246H162.641V15.0117H164.153L172.786 26.0414V15.0348H174.576V29.1246H172.944L164.432 18.3143Z" fill="white"/>
</svg>
