<svg width="116" height="116" viewBox="0 0 116 116" fill="none" xmlns="http://www.w3.org/2000/svg">
<g filter="url(#filter0_d_356_5)">
<circle cx="54" cy="54" r="27.5" stroke="white" shape-rendering="crispEdges"/>
</g>
<path d="M56 54.0996L52.5 56.0996V52.0996L56 54.0996Z" fill="white" stroke="white" stroke-width="1.5" stroke-linecap="round" stroke-linejoin="round"/>
<path d="M44 54.807V53.392C44 50.497 44 49.049 44.905 48.118C45.811 47.186 47.237 47.146 50.088 47.065C51.438 47.027 52.818 47 54 47C55.181 47 56.561 47.027 57.912 47.065C60.763 47.146 62.189 47.186 63.094 48.118C64 49.049 64 50.498 64 53.392V54.807C64 57.703 64 59.15 63.095 60.082C62.189 61.013 60.764 61.054 57.912 61.134C56.562 61.173 55.182 61.2 54 61.2C52.6958 61.1961 51.3916 61.1741 50.088 61.134C47.237 61.054 45.811 61.014 44.905 60.082C44 59.15 44 57.702 44 54.808V54.807Z" stroke="white" stroke-width="1.5"/>
<defs>
<filter id="filter0_d_356_5" x="0" y="0" width="116" height="116" filterUnits="userSpaceOnUse" color-interpolation-filters="sRGB">
<feFlood flood-opacity="0" result="BackgroundImageFix"/>
<feColorMatrix in="SourceAlpha" type="matrix" values="0 0 0 0 0 0 0 0 0 0 0 0 0 0 0 0 0 0 127 0" result="hardAlpha"/>
<feOffset dx="4" dy="4"/>
<feGaussianBlur stdDeviation="15"/>
<feComposite in2="hardAlpha" operator="out"/>
<feColorMatrix type="matrix" values="0 0 0 0 0 0 0 0 0 0 0 0 0 0 0 0 0 0 0.13 0"/>
<feBlend mode="normal" in2="BackgroundImageFix" result="effect1_dropShadow_356_5"/>
<feBlend mode="normal" in="SourceGraphic" in2="effect1_dropShadow_356_5" result="shape"/>
</filter>
</defs>
</svg>
