<svg width="290" height="89" viewBox="0 0 290 89" fill="none" xmlns="http://www.w3.org/2000/svg">
<path d="M278.789 1.92456C281.251 1.92711 283.61 2.905 285.351 4.64369C287.091 6.38239 288.071 8.73989 288.074 11.199V76.9152C288.071 79.3744 287.091 81.7319 285.351 83.4706C283.61 85.2093 281.251 86.1871 278.789 86.1897H11.2088C8.74785 86.1866 6.38859 85.2085 4.64843 83.4699C2.90827 81.7312 1.9293 79.374 1.92624 76.9152V11.199C1.9293 8.74022 2.90827 6.38301 4.64843 4.64437C6.38859 2.90574 8.74785 1.92762 11.2088 1.92456H278.789ZM278.789 0H11.2088C8.23604 0 5.38505 1.1799 3.28299 3.28012C1.18093 5.38035 0 8.22886 0 11.199V76.9152C0 79.8854 1.18093 82.7339 3.28299 84.8341C5.38505 86.9344 8.23604 88.1143 11.2088 88.1143H278.789C281.762 88.1143 284.613 86.9344 286.716 84.8343C288.818 82.7341 290 79.8856 290 76.9152V11.199C290 8.22868 288.818 5.38018 286.716 3.28001C284.613 1.17983 281.762 -4.38461e-08 278.789 0Z" fill="white"/>
<path d="M30.5351 36.0028C25.8293 44.1591 28.8207 56.5379 34.0235 64.0437C36.6201 67.7947 39.2494 71.1646 42.8495 71.1646H43.0557C44.7469 71.0972 45.9701 70.5776 47.1509 70.0753C48.478 69.5094 49.8476 68.9205 52.005 68.9205C54.0526 68.9205 55.3605 69.4864 56.628 70.0329C57.8954 70.5795 59.1571 71.1299 61.0583 71.0934C65.115 71.0183 67.6076 67.3828 69.8016 64.1765C71.4476 61.7595 72.7378 59.119 73.6329 56.3358L73.6483 56.2877C73.6842 56.1809 73.6793 56.0645 73.6345 55.9611C73.5897 55.8577 73.5081 55.7745 73.4056 55.7276L73.3728 55.7142C72.6582 55.4216 66.3921 52.6349 66.3266 45.0752C66.2669 38.9262 71.0266 35.6698 71.9821 35.079L72.0264 35.0501C72.0778 35.0174 72.122 34.9747 72.1565 34.9245C72.191 34.8743 72.2149 34.8177 72.227 34.7581C72.239 34.6984 72.2389 34.6369 72.2266 34.5773C72.2143 34.5177 72.1901 34.4612 72.1555 34.4111C68.8693 29.5997 63.8322 28.8819 61.8038 28.7953C61.5043 28.7649 61.2034 28.7501 60.9023 28.751C58.5195 28.751 56.2369 29.6498 54.4051 30.3715C53.1395 30.8699 52.0455 31.3011 51.2923 31.3011C50.4447 31.3011 49.3449 30.8642 48.0735 30.3599C46.3707 29.6864 44.4407 28.9204 42.3988 28.9204H42.2544C37.4965 28.9897 33.0084 31.7052 30.5351 36.0028Z" fill="white"/>
<path d="M61.8037 15.5589C58.9278 15.6763 55.4779 17.4449 53.4149 19.8583C51.662 21.8849 49.9477 25.2683 50.4022 28.6767C50.4177 28.7785 50.4672 28.872 50.5428 28.9419C50.6184 29.0119 50.7156 29.0541 50.8183 29.0616C51.0109 29.077 51.2036 29.0847 51.4077 29.0847C54.2201 29.0847 57.2539 27.5297 59.3265 25.0277C61.507 22.3853 62.6011 18.9923 62.2756 15.9553C62.2599 15.8426 62.2031 15.7397 62.1159 15.6665C62.0287 15.5933 61.9175 15.5549 61.8037 15.5589Z" fill="white"/>
<path d="M94.8906 17.3198H100.344C101.668 17.2943 102.977 17.5986 104.154 18.2051C105.229 18.7633 106.126 19.6114 106.743 20.6532C107.35 21.7382 107.669 22.9607 107.669 24.204C107.669 25.4473 107.35 26.6698 106.743 27.7548C106.126 28.7976 105.229 29.6464 104.154 30.2048C102.977 30.8105 101.668 31.1147 100.344 31.0901H94.8906V17.3198ZM100.267 30.1856C101.433 30.2097 102.588 29.9501 103.632 29.4292C104.57 28.956 105.35 28.2205 105.878 27.3122C106.394 26.3573 106.664 25.2892 106.664 24.204C106.664 23.1189 106.394 22.0508 105.878 21.0958C105.351 20.1874 104.57 19.4518 103.632 18.9788C102.589 18.4563 101.434 18.196 100.267 18.2205H95.8942V30.1856H100.267Z" fill="white"/>
<path d="M112.229 30.4988C111.455 30.0603 110.818 29.4169 110.387 28.6396C109.948 27.8127 109.719 26.8909 109.719 25.9549C109.719 25.0189 109.948 24.0971 110.387 23.2701C110.818 22.4928 111.455 21.8495 112.229 21.411C113.035 20.9715 113.939 20.7412 114.857 20.7412C115.775 20.7412 116.679 20.9715 117.485 21.411C118.258 21.8492 118.895 22.4926 119.325 23.2701C119.765 24.0967 119.995 25.0186 119.995 25.9549C119.995 26.8911 119.765 27.8131 119.325 28.6396C118.895 29.4171 118.258 30.0606 117.485 30.4988C116.679 30.9382 115.775 31.1685 114.857 31.1685C113.939 31.1685 113.035 30.9382 112.229 30.4988ZM116.973 29.7289C117.597 29.361 118.109 28.8283 118.45 28.1893C118.806 27.4954 118.992 26.7269 118.992 25.9472C118.992 25.1675 118.806 24.399 118.45 23.705C118.109 23.066 117.597 22.5333 116.973 22.1654C116.326 21.8026 115.596 21.6121 114.854 21.6121C114.112 21.6121 113.382 21.8026 112.735 22.1654C112.111 22.5334 111.601 23.0661 111.26 23.705C110.904 24.399 110.718 25.1675 110.718 25.9472C110.718 26.7269 110.904 27.4954 111.26 28.1893C111.601 28.8282 112.111 29.3609 112.735 29.7289C113.382 30.0917 114.112 30.2823 114.854 30.2823C115.596 30.2823 116.326 30.0917 116.973 29.7289Z" fill="white"/>
<path d="M137.439 20.8203L133.54 31.0898H132.615L129.148 22.1791L125.663 31.0898H124.756L120.859 20.8203H121.803L125.226 29.9928L128.73 20.8261H129.576L133.062 29.9736L136.529 20.8261L137.439 20.8203Z" fill="white"/>
<path d="M147.792 21.8628C148.539 22.6096 148.913 23.6848 148.915 25.0884V31.0892H147.928V25.1673C147.928 24.0126 147.637 23.1337 147.054 22.5307C146.471 21.9276 145.653 21.6261 144.602 21.6261C143.395 21.6261 142.443 21.9873 141.747 22.7097C141.051 23.432 140.703 24.402 140.703 25.6196V31.0892H139.719V20.8197H140.665V23.0426C141.01 22.3319 141.563 21.7422 142.25 21.3509C143.011 20.9294 143.871 20.7188 144.74 20.7408C146.026 20.7408 147.043 21.1148 147.792 21.8628Z" fill="white"/>
<path d="M152.969 16.4941H153.953V31.09H152.969V16.4941Z" fill="white"/>
<path d="M159.494 30.4988C158.721 30.0597 158.084 29.4165 157.653 28.6396C157.214 27.8127 156.984 26.8909 156.984 25.9549C156.984 25.0189 157.214 24.0971 157.653 23.2701C158.084 22.4932 158.721 21.85 159.494 21.411C160.3 20.9715 161.204 20.7412 162.123 20.7412C163.041 20.7412 163.945 20.9715 164.751 21.411C165.524 21.85 166.161 22.4932 166.592 23.2701C167.031 24.0971 167.261 25.0189 167.261 25.9549C167.261 26.8909 167.031 27.8127 166.592 28.6396C166.161 29.4165 165.524 30.0597 164.751 30.4988C163.945 30.9382 163.041 31.1685 162.123 31.1685C161.204 31.1685 160.3 30.9382 159.494 30.4988ZM164.239 29.7289C164.863 29.361 165.374 28.8283 165.716 28.1893C166.072 27.4954 166.257 26.7269 166.257 25.9472C166.257 25.1675 166.072 24.399 165.716 23.705C165.374 23.066 164.863 22.5333 164.239 22.1654C163.592 21.8022 162.862 21.6115 162.12 21.6115C161.378 21.6115 160.648 21.8022 160.001 22.1654C159.376 22.5333 158.865 23.066 158.523 23.705C158.168 24.399 157.982 25.1675 157.982 25.9472C157.982 26.7269 158.168 27.4954 158.523 28.1893C158.865 28.8283 159.376 29.361 160.001 29.7289C160.648 30.0921 161.378 30.2828 162.12 30.2828C162.862 30.2828 163.592 30.0921 164.239 29.7289Z" fill="white"/>
<path d="M176.675 21.7161C177.357 22.3666 177.698 23.3212 177.698 24.5798V31.0906H176.754V29.2604C176.427 29.8625 175.926 30.3527 175.317 30.6672C174.615 31.0187 173.836 31.1913 173.051 31.1695C171.909 31.1695 171.006 30.9001 170.345 30.3612C170.041 30.105 169.795 29.7866 169.623 29.4276C169.452 29.0686 169.36 28.6771 169.352 28.2794C169.345 27.8818 169.422 27.4871 169.58 27.1219C169.738 26.7566 169.971 26.4293 170.266 26.1618C170.877 25.6306 171.852 25.365 173.19 25.365H176.713V24.5394C176.713 23.5823 176.456 22.8548 175.943 22.3569C175.429 21.8591 174.671 21.6096 173.668 21.6083C172.999 21.6057 172.335 21.7257 171.709 21.9624C171.125 22.1743 170.587 22.495 170.124 22.9074L169.632 22.1991C170.173 21.7233 170.802 21.359 171.483 21.1271C172.21 20.8698 172.976 20.7396 173.747 20.7422C175.017 20.7409 175.993 21.0656 176.675 21.7161ZM175.365 29.7723C175.981 29.3553 176.452 28.7575 176.713 28.0614V26.1368H173.209C172.199 26.1368 171.467 26.3203 171.013 26.6872C170.79 26.8692 170.612 27.101 170.494 27.364C170.377 27.6271 170.322 27.914 170.335 28.2018C170.323 28.5064 170.385 28.8095 170.515 29.0852C170.645 29.3609 170.84 29.6013 171.083 29.7858C171.582 30.1707 172.285 30.3631 173.19 30.3631C173.958 30.3857 174.715 30.1793 175.365 29.7704V29.7723Z" fill="white"/>
<path d="M190.907 16.4941V31.09H189.944V28.6689C189.564 29.4388 188.969 30.0815 188.229 30.5184C187.47 30.959 186.604 31.1839 185.725 31.1689C184.815 31.1812 183.918 30.9499 183.127 30.4992C182.361 30.0619 181.731 29.4219 181.307 28.6497C180.874 27.8173 180.648 26.8932 180.648 25.9553C180.648 25.0174 180.874 24.0933 181.307 23.2609C181.727 22.4855 182.358 21.8444 183.127 21.4114C183.92 20.9672 184.816 20.7395 185.725 20.7513C186.593 20.738 187.448 20.963 188.197 21.4018C188.926 21.8354 189.522 22.4613 189.919 23.2109V16.5038L190.907 16.4941ZM187.91 29.7313C188.534 29.3633 189.044 28.8306 189.385 28.1917C189.741 27.4977 189.927 26.7292 189.927 25.9495C189.927 25.1698 189.741 24.4013 189.385 23.7074C189.044 23.0685 188.534 22.5357 187.91 22.1678C187.263 21.805 186.533 21.6144 185.791 21.6144C185.049 21.6144 184.319 21.805 183.672 22.1678C183.048 22.5357 182.537 23.0685 182.197 23.7074C181.841 24.4013 181.655 25.1698 181.655 25.9495C181.655 26.7292 181.841 27.4977 182.197 28.1917C182.537 28.8306 183.048 29.3633 183.672 29.7313C184.319 30.0941 185.049 30.2846 185.791 30.2846C186.533 30.2846 187.263 30.0941 187.91 29.7313Z" fill="white"/>
<path d="M201.51 30.4988C200.737 30.0606 200.1 29.4171 199.67 28.6396C199.23 27.8131 199 26.8911 199 25.9549C199 25.0186 199.23 24.0967 199.67 23.2701C200.1 22.4926 200.737 21.8492 201.51 21.411C202.316 20.9715 203.22 20.7412 204.138 20.7412C205.057 20.7412 205.96 20.9715 206.767 21.411C207.54 21.8495 208.177 22.4928 208.608 23.2701C209.047 24.0971 209.276 25.0189 209.276 25.9549C209.276 26.8909 209.047 27.8127 208.608 28.6396C208.177 29.4169 207.54 30.0603 206.767 30.4988C205.96 30.9382 205.057 31.1685 204.138 31.1685C203.22 31.1685 202.316 30.9382 201.51 30.4988ZM206.256 29.7289C206.88 29.3609 207.391 28.8282 207.732 28.1893C208.087 27.4954 208.273 26.7269 208.273 25.9472C208.273 25.1675 208.087 24.399 207.732 23.705C207.391 23.0661 206.88 22.5334 206.256 22.1654C205.609 21.8026 204.879 21.6121 204.137 21.6121C203.395 21.6121 202.666 21.8026 202.018 22.1654C201.394 22.5333 200.883 23.066 200.541 23.705C200.185 24.399 200 25.1675 200 25.9472C200 26.7269 200.185 27.4954 200.541 28.1893C200.883 28.8283 201.394 29.361 202.018 29.7289C202.666 30.0917 203.395 30.2823 204.137 30.2823C204.879 30.2823 205.609 30.0917 206.256 29.7289Z" fill="white"/>
<path d="M220.399 21.8638C221.149 22.6105 221.523 23.6857 221.522 25.0893V31.0901H220.538V25.1682C220.538 24.0135 220.246 23.1346 219.661 22.5316C219.077 21.9285 218.26 21.627 217.209 21.627C216.001 21.627 215.049 21.9882 214.355 22.7106C213.66 23.4329 213.312 24.4029 213.312 25.6205V31.0901H212.328V20.8206H213.272V23.0435C213.618 22.3328 214.17 21.7431 214.857 21.3518C215.618 20.9307 216.478 20.7201 217.348 20.7417C218.635 20.7417 219.652 21.1157 220.399 21.8638Z" fill="white"/>
<path d="M235.735 30.4393C235.468 30.687 235.149 30.8718 234.801 30.9801C234.424 31.1075 234.028 31.1725 233.63 31.1725C232.731 31.1725 232.041 30.9262 231.561 30.4335C231.081 29.9408 230.838 29.2557 230.833 28.3781V21.671H228.938V20.8242H230.827V18.582H231.827V20.8242H235.101V21.671H231.827V28.2799C231.827 28.9497 231.988 29.4578 232.31 29.8042C232.633 30.1506 233.108 30.3244 233.738 30.3257C234.324 30.3437 234.894 30.1372 235.333 29.7484L235.735 30.4393Z" fill="white"/>
<path d="M246.54 21.8637C247.288 22.6104 247.663 23.6856 247.663 25.0893V31.09H246.678V25.1682C246.678 24.0134 246.386 23.1345 245.802 22.5315C245.218 21.9285 244.401 21.627 243.352 21.627C242.143 21.627 241.192 21.9881 240.497 22.7105C239.802 23.4328 239.454 24.4028 239.453 25.6204V31.09H238.469V16.4941H239.453V22.9645C239.796 22.2679 240.346 21.6944 241.029 21.3229C241.785 20.9223 242.633 20.7234 243.489 20.7455C244.775 20.7429 245.792 21.1157 246.54 21.8637Z" fill="white"/>
<path d="M260.427 26.1915H251.587C251.599 26.9442 251.81 27.6805 252.198 28.3259C252.569 28.94 253.102 29.4401 253.739 29.7712C254.366 30.0813 255.052 30.2548 255.751 30.28C256.451 30.3052 257.147 30.1816 257.795 29.9175C258.353 29.6848 258.844 29.3163 259.223 28.8455L259.801 29.496C259.347 30.0383 258.77 30.4635 258.117 30.7354C257.327 31.0571 256.477 31.2025 255.625 31.1616C254.773 31.1208 253.941 30.8945 253.186 30.4987C252.4 30.0676 251.749 29.4274 251.306 28.6492C250.844 27.8273 250.609 26.8973 250.626 25.9548C250.609 25.0173 250.829 24.0906 251.265 23.2604C251.671 22.4908 252.281 21.8475 253.028 21.4013C253.793 20.964 254.66 20.7331 255.541 20.7315C256.423 20.7298 257.29 20.9573 258.057 21.3917C258.8 21.8313 259.406 22.4674 259.81 23.2296C260.246 24.0537 260.466 24.9747 260.45 25.9067L260.427 26.1915ZM253.596 22.0884C253.021 22.4092 252.542 22.8784 252.209 23.4471C251.855 24.0489 251.649 24.7265 251.608 25.4236H259.485C259.457 24.7287 259.253 24.0521 258.893 23.4567C258.547 22.8822 258.055 22.409 257.467 22.0843C256.88 21.7597 256.217 21.5952 255.546 21.6072C254.865 21.5974 254.194 21.7632 253.596 22.0884Z" fill="white"/>
<path d="M109.465 61.5285H97.6898L95.3687 66.975H90.8594L101.454 43.4434H105.761L116.392 66.975H111.823L109.465 61.5285ZM108.018 58.1009L103.578 47.814L99.1711 58.1009H108.018Z" fill="white"/>
<path d="M133.637 49.9655C135.003 50.7139 136.129 51.8327 136.885 53.193C137.67 54.5825 138.062 56.1863 138.062 58.0044C138.095 59.6874 137.689 61.35 136.885 62.8293C136.133 64.1968 135.006 65.3217 133.637 66.0721C132.197 66.8497 130.58 67.2434 128.943 67.2153C126.522 67.2153 124.605 66.4089 123.191 64.7962V73.5029H118.984V49.0244H122.993V51.3781C123.676 50.5312 124.561 49.8693 125.566 49.4535C126.639 49.0179 127.789 48.8006 128.947 48.8146C130.583 48.7896 132.199 49.1859 133.637 49.9655ZM132.289 62.0671C133.287 61.0407 133.786 59.6845 133.788 57.9986C133.789 56.3127 133.289 54.9572 132.289 53.932C131.291 52.9056 130.019 52.3923 128.471 52.3923C127.517 52.3784 126.577 52.6167 125.746 53.0833C124.931 53.544 124.263 54.2251 123.819 55.0482C123.354 55.9653 123.111 56.979 123.111 58.0073C123.111 59.0355 123.354 60.0492 123.819 60.9663C124.263 61.7894 124.931 62.4705 125.746 62.9313C126.577 63.3972 127.518 63.6349 128.471 63.6203C130.02 63.6151 131.293 63.0974 132.291 62.0671H132.289Z" fill="white"/>
<path d="M156.717 49.9656C158.083 50.714 159.209 51.8328 159.965 53.1931C160.75 54.5826 161.142 56.1864 161.142 58.0045C161.175 59.6875 160.769 61.3501 159.965 62.8293C159.213 64.1969 158.087 65.3218 156.717 66.0722C155.277 66.8497 153.66 67.2435 152.023 67.2154C149.601 67.2154 147.684 66.409 146.271 64.7962V73.503H142.062V49.0244H146.067V51.3782C146.75 50.5312 147.635 49.8694 148.641 49.4536C149.714 49.0179 150.863 48.8007 152.021 48.8147C153.66 48.7887 155.277 49.1851 156.717 49.9656ZM155.369 62.0672C156.367 61.0408 156.866 59.6846 156.868 57.9987C156.869 56.3128 156.369 54.9572 155.369 53.9321C154.371 52.9057 153.099 52.3924 151.551 52.3924C150.598 52.3784 149.657 52.6168 148.826 53.0833C148.012 53.5449 147.344 54.2258 146.899 55.0483C146.436 55.9659 146.194 56.9795 146.194 58.0073C146.194 59.0352 146.436 60.0488 146.899 60.9664C147.344 61.7889 148.012 62.4698 148.826 62.9314C149.657 63.3973 150.598 63.635 151.551 63.6203C153.1 63.6152 154.373 63.0975 155.371 62.0672H155.369Z" fill="white"/>
<path d="M176.872 66.5379C175.179 66.0247 173.839 65.3415 172.852 64.4883L174.366 61.0914C175.435 61.9101 176.635 62.5414 177.916 62.9583C179.271 63.4287 180.695 63.67 182.13 63.6723C183.879 63.6723 185.186 63.3926 186.05 62.8332C186.914 62.2737 187.346 61.5341 187.345 60.6141C187.353 60.3008 187.292 59.9895 187.168 59.702C187.043 59.4144 186.857 59.1576 186.622 58.9494C186.089 58.4844 185.464 58.1357 184.788 57.9255C184.046 57.6792 183.037 57.3988 181.76 57.0845C180.282 56.7526 178.827 56.3258 177.403 55.8066C176.299 55.3858 175.317 54.6989 174.543 53.8069C173.745 52.8985 173.347 51.6713 173.349 50.1252C173.337 48.864 173.706 47.6286 174.408 46.5802C175.116 45.5153 176.181 44.6691 177.604 44.0417C179.026 43.4143 180.771 43.1006 182.837 43.1006C184.267 43.0999 185.691 43.2804 187.075 43.6375C188.353 43.9454 189.57 44.4659 190.675 45.1772L189.296 48.5721C188.283 47.975 187.198 47.5118 186.066 47.1941C185.005 46.8887 183.907 46.7301 182.803 46.7226C181.074 46.7226 179.79 47.0139 178.95 47.5964C178.11 48.1789 177.69 48.9487 177.688 49.9058C177.679 50.217 177.739 50.5263 177.864 50.8113C177.989 51.0963 178.177 51.3498 178.413 51.5533C178.949 52.0105 179.573 52.3537 180.246 52.5618C180.986 52.8094 181.995 53.0897 183.274 53.4028C184.737 53.7218 186.176 54.143 187.58 54.6634C188.685 55.0897 189.673 55.7755 190.457 56.663C191.254 57.5611 191.652 58.7717 191.652 60.2946C191.664 61.5511 191.294 62.7818 190.592 63.8243C189.886 64.8764 188.815 65.7168 187.379 66.3455C185.944 66.9742 184.194 67.2879 182.13 67.2866C180.35 67.2988 178.578 67.0465 176.872 66.5379Z" fill="white"/>
<path d="M206.398 66.0008C205.867 66.4227 205.254 66.7312 204.599 66.9073C203.87 67.1121 203.117 67.2138 202.361 67.2094C200.387 67.2094 198.862 66.6962 197.786 65.6698C196.71 64.6433 196.171 63.1415 196.17 61.1644V52.525H193.203V49.1647H196.164V45.0635H200.371V49.1647H205.186V52.525H200.371V61.0643C200.371 61.938 200.584 62.6046 201.01 63.0639C201.437 63.5232 202.053 63.7529 202.859 63.7529C203.706 63.7835 204.538 63.5226 205.215 63.0139L206.398 66.0008Z" fill="white"/>
<path d="M212.418 66.0337C210.995 65.2847 209.811 64.1509 209.002 62.7619C208.196 61.309 207.773 59.6752 207.773 58.014C207.773 56.3529 208.196 54.719 209.002 53.2661C209.813 51.8789 210.996 50.7457 212.418 49.9944C213.945 49.2212 215.634 48.8184 217.347 48.8184C219.06 48.8184 220.748 49.2212 222.276 49.9944C223.697 50.7468 224.879 51.8798 225.691 53.2661C226.495 54.7197 226.917 56.3532 226.917 58.014C226.917 59.6748 226.495 61.3084 225.691 62.7619C224.881 64.1501 223.698 65.2836 222.276 66.0337C220.748 66.8068 219.06 67.2097 217.347 67.2097C215.634 67.2097 213.945 66.8068 212.418 66.0337ZM221.165 62.0672C222.174 61.0407 222.679 59.6845 222.679 57.9986C222.679 56.3127 222.174 54.9572 221.165 53.932C220.155 52.9056 218.877 52.3924 217.329 52.3924C215.782 52.3924 214.509 52.9056 213.512 53.932C212.513 54.9584 212.013 56.314 212.013 57.9986C212.013 59.6833 212.513 61.0394 213.512 62.0672C214.509 63.0936 215.782 63.6068 217.329 63.6068C218.877 63.6068 220.155 63.0936 221.165 62.0672Z" fill="white"/>
<path d="M241.349 48.8223V52.8234C241.028 52.7596 240.702 52.7254 240.374 52.7214C238.736 52.7214 237.457 53.1981 236.537 54.1514C235.618 55.1047 235.158 56.4769 235.158 58.268V66.9748H230.953V49.0244H234.956V51.6456C236.168 49.7634 238.299 48.8223 241.349 48.8223Z" fill="white"/>
<path d="M261.578 59.3435H247.48C247.686 60.6024 248.377 61.7305 249.406 62.4863C250.45 63.2562 251.746 63.6411 253.293 63.6411C255.265 63.6411 256.892 62.9912 258.172 61.6915L260.426 64.28C259.605 65.2538 258.552 66.0051 257.363 66.4644C256.032 66.9749 254.616 67.2257 253.191 67.2034C251.218 67.2034 249.48 66.8115 247.977 66.0275C246.525 65.2934 245.317 64.1576 244.494 62.7558C243.663 61.3093 243.239 59.6656 243.267 57.9982C243.242 56.3464 243.654 54.7171 244.461 53.2754C245.239 51.8974 246.386 50.7642 247.774 50.0036C249.239 49.2071 250.886 48.8021 252.553 48.8277C254.191 48.7983 255.809 49.1963 257.246 49.9824C258.611 50.7402 259.731 51.8712 260.476 53.2427C261.246 54.6437 261.632 56.2629 261.632 58.1003C261.645 58.3909 261.622 58.8066 261.578 59.3435ZM249.146 53.3774C248.205 54.1886 247.599 55.3204 247.447 56.5529H257.642C257.504 55.3323 256.916 54.2067 255.994 53.3947C255.074 52.5864 253.931 52.1829 252.563 52.1841C251.316 52.1488 250.099 52.5735 249.146 53.3774Z" fill="white"/>
</svg>
