<svg width="245" height="61" viewBox="0 0 245 61" fill="none" xmlns="http://www.w3.org/2000/svg">
<path d="M181.3 39.928C180.086 39.7212 178.838 39.8429 177.687 40.2806C176.281 40.789 174.78 40.9816 173.291 40.8447C171.795 40.6175 170.604 39.7556 169.209 38.1962C168.057 36.8955 167.07 36.0414 165.886 35.7593C164.687 35.4565 163.42 35.5755 162.298 36.0962C161.091 36.535 158.333 38.2354 157.236 38.8153C155.512 39.7321 152.346 41.4246 151.813 40.8369C151.28 40.2492 153.38 37.7574 154.525 36.6683C155.669 35.5791 158.85 32.8365 161.922 31.763C163.19 31.2111 164.601 31.0793 165.949 31.3869C166.301 31.4905 166.679 31.4607 167.01 31.3031C167.341 31.1455 167.602 30.8712 167.744 30.5328C167.986 29.9216 167.932 28.8481 165.98 28.041C164.069 27.3948 162.008 27.3374 160.064 27.8765C157.171 28.714 154.477 30.1265 152.142 32.0294C149.986 33.829 148.087 35.9173 146.501 38.2354C145.663 38.7493 144.693 39.0055 143.711 38.972C140.616 38.8074 138.555 34.4742 137.701 33.1892C136.134 30.8384 134.081 29.663 132.012 29.663C129.599 29.663 128.384 30.3134 125.446 32.6328C124.913 33.0559 124.513 32.9619 124.263 32.3977C123.875 31.6422 123.298 31.0002 122.588 30.5346C121.878 30.0689 121.059 29.7956 120.211 29.7414C119.265 29.6718 118.316 29.8207 117.437 30.1767C116.558 30.5327 115.773 31.0862 115.142 31.7944C113.128 33.8395 111.412 37.491 111.302 34.9287C111.216 33.0481 111.388 29.8981 111.192 28.4171C110.895 26.7794 109.845 26.0664 108.058 26.1918C106.376 26.3224 105.558 27.2757 105.605 29.0518C105.605 29.7022 105.754 32.6328 105.903 35.728C103.829 36.8128 101.656 37.6996 99.4151 38.3765C97.4613 38.9108 95.4368 39.1408 93.4129 39.0582C89.0013 38.8701 87.5909 34.9444 85.82 32.3272C85.1492 31.2758 84.2217 30.4126 83.125 29.819C82.0282 29.2254 80.7983 28.9209 79.5513 28.9343C77.4826 28.9343 75.3513 29.663 73.4002 32.3115C72.4207 33.6436 71.5979 35.4067 70.3364 35.2421C69.0748 35.0776 68.9651 33.8317 68.6673 32.4447C68.2912 30.666 67.3744 30.0391 65.8151 30.3918C64.5457 30.6817 63.8091 31.9589 63.8796 33.5261C63.9347 35.6303 64.2478 37.7198 64.8121 39.7477C65.4703 42.3179 67.774 42.647 69.349 42.4511C72.8595 42.0123 75.1084 36.4254 77.8587 33.8317C78.2172 33.4782 78.6893 33.263 79.1913 33.2243C79.6933 33.1855 80.1928 33.3258 80.6013 33.6201C81.4475 34.4037 82.952 37.0444 83.4457 37.8123C84.1637 39.0624 85.1546 40.1343 86.3444 40.9484C87.5343 41.7624 88.8924 42.2975 90.3177 42.5138C95.5521 43.5716 102.017 41.3776 106.052 39.5127C106.138 41.4403 106.217 43.031 106.248 43.6421C106.538 45.8205 107.564 47.0586 109.829 46.8627C110.577 46.7992 111.295 46.5369 111.908 46.1029C112.521 45.669 113.007 45.0791 113.316 44.3944C114.744 41.7569 116.313 39.1987 118.017 36.7309C118.683 35.9944 119.31 36.4567 119.686 38.1962C120.133 40.2884 120.94 41.4795 122.374 41.5657C124.31 41.7224 125.407 40.9074 126.598 39.497C128.165 37.6086 130.194 33.8552 131.73 34.0746C133.885 34.3724 134.418 38.1335 137.442 40.8918C140.138 43.3522 143.163 42.9369 145.278 42.3963C145.568 43.8145 146.798 44.8097 148.985 45.3739C150.191 45.605 151.43 45.605 152.636 45.3739C153.827 45.1426 154.989 44.7799 156.1 44.2925C158.325 43.2974 161.083 41.8948 163.152 40.7351C163.578 40.4668 164.079 40.3426 164.581 40.3807C165.084 40.4188 165.56 40.6172 165.941 40.9466C171.889 45.2485 175.015 44.7862 179.975 42.5138C180.471 42.3408 180.938 42.0952 181.362 41.7851C181.519 41.6805 181.649 41.5412 181.743 41.3782C181.836 41.2151 181.891 41.0325 181.903 40.8447C181.885 40.6228 181.829 40.4056 181.738 40.2022C181.624 40.068 181.47 39.9723 181.3 39.928Z" fill="url(#paint0_linear_25_521)"/>
<path d="M241.842 33.4319C240.51 34.2154 238.621 35.289 236.153 36.4957C233.614 37.7351 230.997 38.8057 228.317 39.7005C225.952 40.5569 223.451 40.9739 220.936 40.9308C218.765 40.8289 217.253 40.108 216.587 38.2666C216.469 37.9105 216.469 37.5256 216.587 37.1695C216.783 36.8326 217.371 36.7464 218.256 36.8326C219.434 36.9496 220.62 36.9496 221.798 36.8326C222.756 36.7354 223.69 36.4701 224.556 36.049C225.254 35.7738 225.866 35.3158 226.326 34.723C226.787 34.1301 227.079 33.4244 227.173 32.6796C227.228 31.9257 227.084 31.1707 226.755 30.4901C226.426 29.8094 225.925 29.2269 225.3 28.8009C224.045 27.8723 222.571 27.2814 221.022 27.0848C219.82 26.8645 218.585 26.9021 217.399 27.1952C216.213 27.4884 215.103 28.0304 214.142 28.7852C212.563 29.9822 211.421 31.6641 210.89 33.5729C210.596 33.7424 210.31 33.9281 210.036 34.1293C205.907 37.483 204.159 38.7054 202.255 40.1628C200.774 41.2303 199.109 42.0141 197.342 42.4744C195.908 42.7957 194.263 42.592 193.706 41.9102C193.15 41.2285 192.923 40.3901 194.318 38.2431C196.143 35.3908 197.914 33.3378 198.087 30.7442C198.243 28.3934 197.17 25.2591 194.576 24.6557C191.371 23.9192 184.39 26.1445 178.387 25.1964C176.906 24.9613 177.886 28.1427 179.273 28.6833C183.88 30.4856 192.304 26.2856 192.993 28.9811C194.349 34.286 185.62 40.6643 183.112 42.8192C182.833 43.0333 182.571 43.2691 182.329 43.5244C182.217 43.6646 182.14 43.8294 182.105 44.0052C182.069 44.181 182.076 44.3627 182.125 44.5352C182.202 44.9691 182.443 45.3565 182.799 45.6166C183.153 45.849 183.56 45.9891 183.982 46.024C185.173 46.1808 187.116 45.0446 188.198 44.6449C189.765 44.1513 190.603 45.3737 195.25 46.0711C196.698 46.3294 198.183 46.283 199.612 45.9349C201.041 45.5868 202.381 44.9447 203.548 44.0494C206.126 42.0591 208.963 40.0531 210.89 38.5643C211.168 39.5421 211.608 40.4664 212.191 41.299C212.883 42.2527 213.776 43.0434 214.806 43.616C215.836 44.1885 216.979 44.529 218.154 44.6136C220.301 44.8203 222.465 44.7306 224.587 44.3472C226.96 43.8779 229.284 43.1907 231.53 42.2942C234.319 41.2363 242.32 36.339 243.715 35.1793C245.109 34.0196 244.341 31.8647 241.842 33.4319ZM218.185 31.277C218.461 31.0606 218.782 30.9112 219.125 30.8405C219.467 30.7698 219.822 30.7797 220.16 30.8696C220.497 30.9356 220.809 31.0935 221.062 31.3258C221.315 31.5581 221.499 31.8558 221.594 32.186C221.676 32.3743 221.681 32.5874 221.608 32.7794C221.535 32.9714 221.389 33.1269 221.202 33.2125C220.76 33.4256 220.281 33.5507 219.792 33.5807C218.981 33.6885 218.156 33.6135 217.378 33.3613C217.292 33.3143 217.261 33.1889 217.277 32.9617C217.308 32.6322 217.404 32.3123 217.56 32.0204C217.716 31.7285 217.929 31.4705 218.185 31.2613V31.277Z" fill="url(#paint1_linear_25_521)"/>
<path d="M57.4925 30.854C59.8433 14.1794 60.4153 10.6611 60.6268 9.65025C61.4104 5.22301 58.2761 4.10249 56.0977 6.8607C54.2874 9.2389 52.6856 11.7688 51.31 14.4223C49.9309 16.9062 43.9522 26.8812 41.9776 30.0939C40.0029 33.3066 38.0596 36.2372 36.2574 38.7839C34.6918 40.9817 33.0045 43.0902 31.2033 45.0996C29.2052 47.3406 27.2149 47.2231 26.8074 44.8566C26.5592 42.6737 26.6597 40.4651 27.1052 38.3137C27.5048 35.8376 28.0298 33.2596 28.6723 30.6581C29.3149 28.0566 30.0279 25.4003 30.8428 22.8223C34.8469 10.0499 33.7186 3.78121 30.2787 1.39128C25.3578 -2.04081 14.607 0.176738 4.31072 16.0208C0.549524 21.8036 -0.860923 28.9734 0.518184 34.8268C2.21072 42.0749 7.53125 43.4462 9.92118 42.8272C12.0682 42.2786 15.1947 38.2824 10.1092 35.8376C5.97191 33.8473 0.526023 29.5689 7.28051 17.729C12.601 8.40436 22.6152 1.84577 27.3794 4.3219C29.5578 5.45026 29.6675 11.2096 27.8261 16.8592C26.4078 21.2395 25.5301 24.1152 24.8719 26.0898C19.2145 43.0936 19.6219 49.2682 24.8719 52.2615C29.4872 54.9022 35.7951 49.3466 42.5574 38.0551C46.1932 31.9824 49.2884 26.7559 55.5492 15.8014C53.1985 24.3738 49.5235 42.1141 53.5903 56.7436C55.0634 62.0563 62.3586 60.2071 60.4545 56.0932C55.7451 45.9145 56.9753 34.8033 57.4925 30.854Z" fill="url(#paint2_linear_25_521)"/>
<defs>
<linearGradient id="paint0_linear_25_521" x1="122.889" y1="26.1777" x2="122.889" y2="46.8829" gradientUnits="userSpaceOnUse">
<stop stop-color="#F58345"/>
<stop offset="1" stop-color="#ED0677"/>
</linearGradient>
<linearGradient id="paint1_linear_25_521" x1="211.026" y1="24.5034" x2="211.026" y2="46.2355" gradientUnits="userSpaceOnUse">
<stop stop-color="#F58345"/>
<stop offset="1" stop-color="#ED0677"/>
</linearGradient>
<linearGradient id="paint2_linear_25_521" x1="30.3846" y1="0" x2="30.3846" y2="60.0141" gradientUnits="userSpaceOnUse">
<stop stop-color="#F58345"/>
<stop offset="1" stop-color="#ED0677"/>
</linearGradient>
</defs>
</svg>
