<svg width="116" height="116" viewBox="0 0 116 116" fill="none" xmlns="http://www.w3.org/2000/svg">
<g filter="url(#filter0_d_356_3)">
<circle cx="54" cy="54" r="27.5" stroke="white" shape-rendering="crispEdges"/>
</g>
<path d="M51.1408 45H58.586C61.4223 45 63.7268 47.3045 63.7268 50.1408V57.586C63.7268 58.9494 63.1852 60.257 62.2211 61.2211C61.257 62.1852 59.9494 62.7268 58.586 62.7268H51.1408C48.3045 62.7268 46 60.4223 46 57.586V50.1408C46 48.7773 46.5416 47.4698 47.5057 46.5057C48.4698 45.5416 49.7773 45 51.1408 45ZM50.9635 46.7727C50.1172 46.7727 49.3056 47.1089 48.7072 47.7072C48.1089 48.3056 47.7727 49.1172 47.7727 49.9635V57.7633C47.7727 59.5271 49.1997 60.9541 50.9635 60.9541H58.7633C59.6095 60.9541 60.4211 60.6179 61.0195 60.0195C61.6179 59.4211 61.9541 58.6095 61.9541 57.7633V49.9635C61.9541 48.1997 60.5271 46.7727 58.7633 46.7727H50.9635ZM59.5167 48.1022C59.8105 48.1022 60.0923 48.2189 60.3001 48.4267C60.5079 48.6345 60.6246 48.9163 60.6246 49.2101C60.6246 49.5039 60.5079 49.7858 60.3001 49.9935C60.0923 50.2013 59.8105 50.318 59.5167 50.318C59.2228 50.318 58.941 50.2013 58.7332 49.9935C58.5255 49.7858 58.4087 49.5039 58.4087 49.2101C58.4087 48.9163 58.5255 48.6345 58.7332 48.4267C58.941 48.2189 59.2228 48.1022 59.5167 48.1022ZM54.8634 49.4317C56.0387 49.4317 57.166 49.8986 57.9971 50.7297C58.8282 51.5608 59.2951 52.688 59.2951 53.8634C59.2951 55.0387 58.8282 56.166 57.9971 56.9971C57.166 57.8282 56.0387 58.2951 54.8634 58.2951C53.688 58.2951 52.5608 57.8282 51.7297 56.9971C50.8986 56.166 50.4317 55.0387 50.4317 53.8634C50.4317 52.688 50.8986 51.5608 51.7297 50.7297C52.5608 49.8986 53.688 49.4317 54.8634 49.4317ZM54.8634 51.2044C54.1582 51.2044 53.4818 51.4845 52.9832 51.9832C52.4845 52.4818 52.2044 53.1582 52.2044 53.8634C52.2044 54.5686 52.4845 55.2449 52.9832 55.7436C53.4818 56.2423 54.1582 56.5224 54.8634 56.5224C55.5686 56.5224 56.2449 56.2423 56.7436 55.7436C57.2423 55.2449 57.5224 54.5686 57.5224 53.8634C57.5224 53.1582 57.2423 52.4818 56.7436 51.9832C56.2449 51.4845 55.5686 51.2044 54.8634 51.2044Z" fill="white"/>
<defs>
<filter id="filter0_d_356_3" x="0" y="0" width="116" height="116" filterUnits="userSpaceOnUse" color-interpolation-filters="sRGB">
<feFlood flood-opacity="0" result="BackgroundImageFix"/>
<feColorMatrix in="SourceAlpha" type="matrix" values="0 0 0 0 0 0 0 0 0 0 0 0 0 0 0 0 0 0 127 0" result="hardAlpha"/>
<feOffset dx="4" dy="4"/>
<feGaussianBlur stdDeviation="15"/>
<feComposite in2="hardAlpha" operator="out"/>
<feColorMatrix type="matrix" values="0 0 0 0 0 0 0 0 0 0 0 0 0 0 0 0 0 0 0.13 0"/>
<feBlend mode="normal" in2="BackgroundImageFix" result="effect1_dropShadow_356_3"/>
<feBlend mode="normal" in="SourceGraphic" in2="effect1_dropShadow_356_3" result="shape"/>
</filter>
</defs>
</svg>
