<svg width="87" height="87" viewBox="0 0 87 87" fill="none" xmlns="http://www.w3.org/2000/svg">
<circle cx="43.5" cy="43.5" r="43.5" fill="url(#paint0_linear_328_6)"/>
<path d="M60.8574 29.0835C59.8613 28.1059 58.6786 27.3305 57.3771 26.8014C56.0755 26.2723 54.6804 26 53.2716 26C51.8627 26 50.4676 26.2723 49.1661 26.8014C47.8645 27.3305 46.6819 28.1059 45.6858 29.0835L43.5 31.2281L41.3142 29.0835C40.3181 28.1059 39.1355 27.3305 37.8339 26.8014C36.5324 26.2723 35.1373 26 33.7284 26C32.3196 26 30.9245 26.2723 29.6229 26.8014C28.3214 27.3305 27.1387 28.1059 26.1426 29.0835C25.1463 30.0608 24.356 31.2212 23.8168 32.4983C23.2775 33.7753 23 35.1441 23 36.5265C23 37.9088 23.2775 39.2776 23.8168 40.5547C24.356 41.8317 25.1463 42.9921 26.1426 43.9694L28.3284 46.114L43.5 61L58.6716 46.114L60.8574 43.9694C61.8537 42.9921 62.644 41.8317 63.1832 40.5547C63.7225 39.2776 64 37.9088 64 36.5265C64 35.1441 63.7225 33.7753 63.1832 32.4983C62.644 31.2212 61.8537 30.0608 60.8574 29.0835Z" stroke="white" stroke-width="3" stroke-miterlimit="10"/>
<defs>
<linearGradient id="paint0_linear_328_6" x1="43.5" y1="0" x2="43.5" y2="87" gradientUnits="userSpaceOnUse">
<stop stop-color="#F58345"/>
<stop offset="1" stop-color="#ED0677"/>
</linearGradient>
</defs>
</svg>
