<svg width="118" height="96" viewBox="0 0 118 96" fill="none" xmlns="http://www.w3.org/2000/svg">
<path d="M50.2682 42.9411L76.3878 46.9277V94.3155L2.23828 82.9941V35.5908L27.9966 39.5307" stroke="black" stroke-width="3" stroke-linecap="round" stroke-linejoin="round"/>
<path d="M76.3882 94.3155L115.999 82.9941V35.5908L76.3882 46.9277V94.3155Z" stroke="black" stroke-width="3" stroke-linecap="round" stroke-linejoin="round"/>
<path d="M96.1938 10.0823C93.5936 10.0802 91.0185 10.5862 88.6157 11.5714C86.2129 12.5566 84.0294 14.0015 82.19 15.8238C80.3507 17.646 78.8916 19.8098 77.8961 22.1914C76.9006 24.573 76.3882 27.1258 76.3882 29.7038V46.9272L115.999 35.6059V29.7038C115.995 24.4984 113.907 19.5076 110.193 15.8283C106.479 12.149 101.444 10.0823 96.1938 10.0823Z" stroke="black" stroke-width="3" stroke-linecap="round" stroke-linejoin="round"/>
<path d="M22.044 2C16.7925 2.00412 11.7573 4.07433 8.04388 7.75612C4.3305 11.4379 2.24244 16.4303 2.23828 21.6371V34.6871" stroke="black" stroke-width="3" stroke-linecap="round" stroke-linejoin="round"/>
<path d="M100.043 10.4404L22.0459 2" stroke="black" stroke-width="3" stroke-linecap="round" stroke-linejoin="round"/>
<path d="M19.7979 38.5172V84.0829" stroke="black" stroke-width="3" stroke-linecap="round" stroke-linejoin="round"/>
<path d="M59.1279 45.5875V91.1532" stroke="black" stroke-width="3" stroke-linecap="round" stroke-linejoin="round"/>
<path d="M47.3329 35.7144L32.4277 33.4409C31.9405 33.3669 31.443 33.398 30.9691 33.5322C30.4952 33.6664 30.0562 33.9004 29.6819 34.2183C29.3076 34.5361 29.007 34.9304 28.8005 35.3741C28.594 35.8177 28.4865 36.3003 28.4854 36.7889V43.8278C28.484 44.6387 28.7766 45.423 29.3101 46.0377C29.8435 46.6524 30.5821 47.0564 31.391 47.176L34.5322 47.6587C34.5237 47.8144 34.5237 47.9703 34.5322 48.1259C34.5339 49.1584 34.923 50.1534 35.6238 50.9172C36.3245 51.681 37.2869 52.1589 38.3235 52.2579C39.36 52.357 40.3967 52.0702 41.2317 51.4533C42.0667 50.8363 42.6404 49.9333 42.8409 48.9201L46.3749 49.4651C46.8633 49.5393 47.3622 49.5078 47.8372 49.3727C48.3122 49.2377 48.752 49.0022 49.1265 48.6826C49.5011 48.363 49.8014 47.9669 50.0069 47.5213C50.2125 47.0757 50.3183 46.5914 50.3172 46.1015V39.0782C50.3164 38.2538 50.0132 37.458 49.4641 36.839C48.915 36.2201 48.1574 35.8203 47.3329 35.7144Z" stroke="black" stroke-width="3" stroke-linecap="round" stroke-linejoin="round"/>
</svg>
