<svg width="192" height="192" viewBox="0 0 192 192" fill="none" xmlns="http://www.w3.org/2000/svg">
<g filter="url(#filter0_d_25_773)">
<circle cx="92" cy="92" r="66" fill="url(#paint0_linear_25_773)"/>
</g>
<path d="M91.6431 122.684C75.3443 109.664 74.4314 92.9327 79.9078 78.9357C82.5542 72.2208 86.5478 66.1172 91.6431 61C96.7384 66.1296 100.732 72.2439 103.378 78.9683C108.887 92.9327 108.007 109.762 91.6431 122.684Z" stroke="white" stroke-width="4" stroke-linecap="round" stroke-linejoin="round"/>
<path d="M91.6399 122.685C60.7373 118.16 55.5542 88.7016 60.7698 69.2686C67.7446 71.196 74.2545 74.5183 79.9046 79.0339C74.4282 92.9332 75.2759 109.762 91.6399 122.685Z" stroke="white" stroke-width="4" stroke-linecap="round" stroke-linejoin="round"/>
<path d="M91.6406 122.685C107.939 109.665 108.885 92.9334 103.376 78.9689C109.026 74.4355 115.551 71.1115 122.543 69.2036C127.759 88.7017 122.576 118.16 91.6406 122.685Z" stroke="white" stroke-width="4" stroke-linecap="round" stroke-linejoin="round"/>
<defs>
<filter id="filter0_d_25_773" x="0" y="0" width="192" height="192" filterUnits="userSpaceOnUse" color-interpolation-filters="sRGB">
<feFlood flood-opacity="0" result="BackgroundImageFix"/>
<feColorMatrix in="SourceAlpha" type="matrix" values="0 0 0 0 0 0 0 0 0 0 0 0 0 0 0 0 0 0 127 0" result="hardAlpha"/>
<feOffset dx="4" dy="4"/>
<feGaussianBlur stdDeviation="15"/>
<feComposite in2="hardAlpha" operator="out"/>
<feColorMatrix type="matrix" values="0 0 0 0 0 0 0 0 0 0 0 0 0 0 0 0 0 0 0.13 0"/>
<feBlend mode="normal" in2="BackgroundImageFix" result="effect1_dropShadow_25_773"/>
<feBlend mode="normal" in="SourceGraphic" in2="effect1_dropShadow_25_773" result="shape"/>
</filter>
<linearGradient id="paint0_linear_25_773" x1="92" y1="26" x2="92" y2="158" gradientUnits="userSpaceOnUse">
<stop stop-color="#00F0FF"/>
<stop offset="1" stop-color="#005EEC"/>
</linearGradient>
</defs>
</svg>
