<svg width="74" height="113" viewBox="0 0 74 113" fill="none" xmlns="http://www.w3.org/2000/svg">
<path d="M63.3883 2H10.6106C8.57499 2 6.9248 3.63614 6.9248 5.65442V11.5967C6.9248 13.615 8.57499 15.2511 10.6106 15.2511H63.3883C65.4239 15.2511 67.0741 13.615 67.0741 11.5967V5.65442C67.0741 3.63614 65.4239 2 63.3883 2Z" stroke="black" stroke-width="3" stroke-linecap="round" stroke-linejoin="round"/>
<path d="M71.9996 105.121V38.1902C72.0015 36.1512 71.5187 34.1406 70.5905 32.3211C69.6622 30.5017 68.3145 28.9248 66.6567 27.7183C64.7023 26.2838 63.116 24.4131 62.0264 22.2576C60.9367 20.1022 60.3744 17.7228 60.3847 15.3118H13.6002C13.6106 17.7228 13.0482 20.1022 11.9585 22.2576C10.8689 24.4131 9.28263 26.2838 7.3282 27.7183C5.67039 28.9248 4.32272 30.5017 3.39444 32.3211C2.46616 34.1406 1.9834 36.1512 1.98536 38.1902V105.121" stroke="black" stroke-width="3" stroke-linecap="round" stroke-linejoin="round"/>
<path d="M47.7638 99.3486C61.8255 100.132 72.0001 102.42 72.0001 105.122C72.0001 108.469 56.3279 111.187 37.0008 111.187C17.6737 111.187 2.00146 108.469 2.00146 105.122C2.00146 101.775 17.6737 98.9801 37.0163 98.9801" stroke="black" stroke-width="3" stroke-linecap="round" stroke-linejoin="round"/>
<path d="M45.0078 103.157L20.1211 88.9074L45.333 45.6226L70.5139 60.0406L45.0078 103.157Z" stroke="black" stroke-width="3" stroke-linecap="round" stroke-linejoin="round"/>
<path d="M45.333 45.6226L49.1272 78.2513L20.1211 88.9074" stroke="black" stroke-width="3" stroke-linecap="round" stroke-linejoin="round"/>
<path d="M33.7175 36.3027C32.9313 35.5212 31.9287 34.9887 30.8369 34.7728C29.7451 34.5569 28.6133 34.6674 27.5849 35.09C26.5564 35.5127 25.6777 36.2286 25.0601 37.1471C24.4426 38.0655 24.1139 39.145 24.1159 40.2488C24.1179 39.3288 23.8908 38.4226 23.4547 37.6105C23.0187 36.7984 22.3872 36.1056 21.6163 35.5936C20.8455 35.0815 19.959 34.766 19.0357 34.6752C18.1124 34.5843 17.1806 34.7208 16.3233 35.0726C15.4659 35.4244 14.7094 35.9806 14.1209 36.6919C13.5323 37.4031 13.1299 38.2474 12.9494 39.1498C12.769 40.0522 12.816 40.9849 13.0863 41.865C13.3565 42.7451 13.8418 43.5454 14.4988 44.195L24.1159 53.7302L33.7175 44.195C34.241 43.6772 34.6563 43.0622 34.9397 42.385C35.2231 41.7079 35.369 40.982 35.369 40.2488C35.369 39.5157 35.2231 38.7898 34.9397 38.1126C34.6563 37.4355 34.241 36.8204 33.7175 36.3027Z" stroke="black" stroke-width="3" stroke-linecap="round" stroke-linejoin="round"/>
</svg>
