<svg width="126" height="125" viewBox="0 0 126 125" fill="none" xmlns="http://www.w3.org/2000/svg">
<path d="M70.5128 102.493L84.6249 78.2246C87.1031 73.9633 88.2213 69.0577 87.8322 64.1539C87.4432 59.2501 85.5651 54.5782 82.4454 50.7535L95.7421 27.9155L80.501 19.1938L67.2357 42.0319C62.3345 41.2601 57.3125 41.9807 52.8331 44.0987C48.3537 46.2166 44.6278 49.6321 42.1476 53.894L13.312 102.493" stroke="black" stroke-width="3" stroke-linecap="round" stroke-linejoin="round"/>
<path d="M101.549 20.1101L84.4659 10.3312C82.1411 9.00039 79.17 9.78712 77.8299 12.0885C76.4898 14.3899 77.2881 17.3345 79.613 18.6653L96.6958 28.4442C99.0206 29.7751 101.992 28.9882 103.332 26.6868C104.672 24.3854 103.874 21.441 101.549 20.1101Z" stroke="black" stroke-width="3" stroke-linecap="round" stroke-linejoin="round"/>
<path d="M95.2548 2.38802L103.095 6.88103C103.462 7.09048 103.78 7.37434 104.029 7.71406C104.278 8.05378 104.451 8.44172 104.539 8.85254C104.626 9.26336 104.625 9.68778 104.536 10.0982C104.446 10.5085 104.27 10.8956 104.02 11.2341L98.7044 18.4633L87.3521 11.9647L91.0055 3.7717C91.1779 3.39096 91.4285 3.05007 91.7413 2.7708C92.0541 2.49154 92.4222 2.27997 92.8221 2.14975C93.222 2.01954 93.6449 1.97352 94.0638 2.01454C94.4827 2.05556 94.8883 2.18275 95.2548 2.38802Z" stroke="black" stroke-width="3" stroke-linecap="round" stroke-linejoin="round"/>
<path d="M95.7848 27.8977L80.5352 19.1682L75.5019 27.812L90.7515 36.5414L95.7848 27.8977Z" stroke="black" stroke-width="3" stroke-linecap="round" stroke-linejoin="round"/>
<path d="M35.5615 102.477L27.7842 98.0303L53.2956 54.2042L78.8071 68.8025L55.8044 107.576" stroke="black" stroke-width="3" stroke-linecap="round" stroke-linejoin="round"/>
<path d="M53.2956 54.2042L57.1529 87.2409L27.7842 98.0303" stroke="black" stroke-width="3" stroke-linecap="round" stroke-linejoin="round"/>
<path d="M93.7207 105.602C95.7319 103.609 98.4588 102.49 101.302 102.49C104.145 102.49 106.872 103.609 108.883 105.602L109.087 105.804C110.081 106.794 111.262 107.58 112.563 108.117C113.864 108.653 115.259 108.929 116.668 108.929C118.077 108.929 119.473 108.653 120.774 108.117C122.075 107.58 123.256 106.794 124.25 105.804L124.438 105.633" stroke="black" stroke-width="3" stroke-linecap="round" stroke-linejoin="round"/>
<path d="M63.0015 105.602C65.0126 103.609 67.7395 102.49 70.5828 102.49C73.426 102.49 76.1529 103.609 78.1641 105.602L78.3522 105.804C79.3473 106.795 80.53 107.581 81.8323 108.118C83.1347 108.654 84.5311 108.93 85.9414 108.93C87.3517 108.93 88.7481 108.654 90.0504 108.118C91.3528 107.581 92.5355 106.795 93.5305 105.804L93.7187 105.633" stroke="black" stroke-width="3" stroke-linecap="round" stroke-linejoin="round"/>
<path d="M32.2861 105.602C34.2973 103.609 37.0242 102.49 39.8674 102.49C42.7107 102.49 45.4376 103.609 47.4487 105.602L47.6369 105.804C48.632 106.795 49.8146 107.581 51.117 108.118C52.4193 108.654 53.8157 108.93 55.226 108.93C56.6363 108.93 58.0327 108.654 59.3351 108.118C60.6375 107.581 61.8201 106.795 62.8152 105.804L63.0033 105.633" stroke="black" stroke-width="3" stroke-linecap="round" stroke-linejoin="round"/>
<path d="M1.55176 105.602C3.56558 103.608 6.29508 102.488 9.1409 102.488C11.9867 102.488 14.7162 103.608 16.73 105.602L16.9182 105.804C17.9133 106.795 19.0959 107.581 20.3983 108.117C21.7007 108.654 23.0971 108.93 24.5074 108.93C25.9176 108.93 27.3141 108.654 28.6164 108.117C29.9188 107.581 31.1014 106.795 32.0965 105.804L32.2847 105.633" stroke="black" stroke-width="3" stroke-linecap="round" stroke-linejoin="round"/>
<path d="M63.0015 119.842C65.0126 117.849 67.7395 116.73 70.5828 116.73C73.426 116.73 76.1529 117.849 78.1641 119.842L78.3522 120.044C80.366 122.038 83.0956 123.158 85.9414 123.158C88.7872 123.158 91.5167 122.038 93.5305 120.044L93.7187 119.858" stroke="black" stroke-width="3" stroke-linecap="round" stroke-linejoin="round"/>
<path d="M32.2861 119.842C34.2973 117.849 37.0242 116.73 39.8674 116.73C42.7107 116.73 45.4376 117.849 47.4487 119.842L47.6369 120.044C49.6507 122.038 52.3802 123.158 55.226 123.158C58.0718 123.158 60.8014 122.038 62.8152 120.044L63.0033 119.858" stroke="black" stroke-width="3" stroke-linecap="round" stroke-linejoin="round"/>
</svg>
